<svg width="116" height="15" viewBox="0 0 116 15" fill="none" xmlns="http://www.w3.org/2000/svg">
<path opacity="0.5" d="M5.715 11.18C4.685 11.18 3.795 10.955 3.045 10.505C2.305 10.045 1.73 9.41 1.32 8.6C0.91 7.78 0.705 6.83 0.705 5.75C0.705 4.68 0.91 3.74 1.32 2.93C1.73 2.11 2.305 1.47 3.045 1.01C3.795 0.55 4.685 0.32 5.715 0.32C6.915 0.32 7.89 0.61 8.64 1.19C9.4 1.76 9.885 2.56 10.095 3.59H8.7C8.54 2.94 8.21 2.42 7.71 2.03C7.22 1.63 6.555 1.43 5.715 1.43C4.965 1.43 4.31 1.605 3.75 1.955C3.19 2.295 2.755 2.79 2.445 3.44C2.145 4.08 1.995 4.85 1.995 5.75C1.995 6.65 2.145 7.425 2.445 8.075C2.755 8.715 3.19 9.21 3.75 9.56C4.31 9.9 4.965 10.07 5.715 10.07C6.555 10.07 7.22 9.88 7.71 9.5C8.21 9.11 8.54 8.595 8.7 7.955H10.095C9.885 8.965 9.4 9.755 8.64 10.325C7.89 10.895 6.915 11.18 5.715 11.18ZM15.0164 11.18C14.3164 11.18 13.6864 11.02 13.1264 10.7C12.5664 10.38 12.1214 9.93 11.7914 9.35C11.4714 8.76 11.3114 8.07 11.3114 7.28C11.3114 6.49 11.4764 5.805 11.8064 5.225C12.1364 4.635 12.5814 4.18 13.1414 3.86C13.7114 3.54 14.3464 3.38 15.0464 3.38C15.7464 3.38 16.3764 3.54 16.9364 3.86C17.4964 4.18 17.9364 4.635 18.2564 5.225C18.5864 5.805 18.7514 6.49 18.7514 7.28C18.7514 8.07 18.5864 8.76 18.2564 9.35C17.9264 9.93 17.4764 10.38 16.9064 10.7C16.3464 11.02 15.7164 11.18 15.0164 11.18ZM15.0164 10.1C15.4464 10.1 15.8464 9.995 16.2164 9.785C16.5864 9.575 16.8864 9.26 17.1164 8.84C17.3464 8.42 17.4614 7.9 17.4614 7.28C17.4614 6.66 17.3464 6.14 17.1164 5.72C16.8964 5.3 16.6014 4.985 16.2314 4.775C15.8614 4.565 15.4664 4.46 15.0464 4.46C14.6164 4.46 14.2164 4.565 13.8464 4.775C13.4764 4.985 13.1764 5.3 12.9464 5.72C12.7164 6.14 12.6014 6.66 12.6014 7.28C12.6014 7.9 12.7164 8.42 12.9464 8.84C13.1764 9.26 13.4714 9.575 13.8314 9.785C14.2014 9.995 14.5964 10.1 15.0164 10.1ZM20.2988 14.3V3.56H21.4388L21.5588 4.79C21.7988 4.43 22.1388 4.105 22.5788 3.815C23.0288 3.525 23.5988 3.38 24.2888 3.38C25.0288 3.38 25.6738 3.55 26.2238 3.89C26.7738 4.23 27.1988 4.695 27.4988 5.285C27.8088 5.875 27.9638 6.545 27.9638 7.295C27.9638 8.045 27.8088 8.715 27.4988 9.305C27.1988 9.885 26.7688 10.345 26.2088 10.685C25.6588 11.015 25.0138 11.18 24.2738 11.18C23.6638 11.18 23.1188 11.055 22.6388 10.805C22.1688 10.555 21.8088 10.205 21.5588 9.755V14.3H20.2988ZM24.1388 10.085C24.6388 10.085 25.0788 9.97 25.4588 9.74C25.8388 9.5 26.1388 9.17 26.3588 8.75C26.5788 8.33 26.6888 7.84 26.6888 7.28C26.6888 6.72 26.5788 6.23 26.3588 5.81C26.1388 5.39 25.8388 5.065 25.4588 4.835C25.0788 4.595 24.6388 4.475 24.1388 4.475C23.6388 4.475 23.1988 4.595 22.8188 4.835C22.4388 5.065 22.1388 5.39 21.9188 5.81C21.6988 6.23 21.5888 6.72 21.5888 7.28C21.5888 7.84 21.6988 8.33 21.9188 8.75C22.1388 9.17 22.4388 9.5 22.8188 9.74C23.1988 9.97 23.6388 10.085 24.1388 10.085ZM29.7226 14.3L31.5676 10.28H31.1326L28.1776 3.56H29.5426L32.0026 9.35L34.6126 3.56H35.9176L31.0426 14.3H29.7226ZM37.043 11V3.56H38.183L38.288 4.985C38.518 4.495 38.868 4.105 39.338 3.815C39.808 3.525 40.388 3.38 41.078 3.38V4.7H40.733C40.293 4.7 39.888 4.78 39.518 4.94C39.148 5.09 38.853 5.35 38.633 5.72C38.413 6.09 38.303 6.6 38.303 7.25V11H37.043ZM43.0527 1.91C42.8027 1.91 42.5927 1.83 42.4227 1.67C42.2627 1.5 42.1827 1.29 42.1827 1.04C42.1827 0.8 42.2627 0.599999 42.4227 0.439999C42.5927 0.279999 42.8027 0.2 43.0527 0.2C43.2927 0.2 43.4977 0.279999 43.6677 0.439999C43.8377 0.599999 43.9227 0.8 43.9227 1.04C43.9227 1.29 43.8377 1.5 43.6677 1.67C43.4977 1.83 43.2927 1.91 43.0527 1.91ZM42.4227 11V3.56H43.6827V11H42.4227ZM48.612 8.66C48.192 8.66 47.807 8.605 47.457 8.495L46.707 9.2C46.817 9.28 46.952 9.35 47.112 9.41C47.282 9.46 47.522 9.51 47.832 9.56C48.142 9.6 48.577 9.645 49.137 9.695C50.137 9.765 50.852 9.995 51.282 10.385C51.712 10.775 51.927 11.285 51.927 11.915C51.927 12.345 51.807 12.755 51.567 13.145C51.337 13.535 50.977 13.855 50.487 14.105C50.007 14.355 49.387 14.48 48.627 14.48C47.957 14.48 47.362 14.39 46.842 14.21C46.322 14.04 45.917 13.775 45.627 13.415C45.337 13.065 45.192 12.62 45.192 12.08C45.192 11.8 45.267 11.495 45.417 11.165C45.567 10.845 45.847 10.54 46.257 10.25C46.037 10.16 45.847 10.065 45.687 9.965C45.537 9.855 45.397 9.735 45.267 9.605V9.26L46.542 8C45.952 7.5 45.657 6.84 45.657 6.02C45.657 5.53 45.772 5.085 46.002 4.685C46.232 4.285 46.567 3.97 47.007 3.74C47.447 3.5 47.982 3.38 48.612 3.38C49.042 3.38 49.432 3.44 49.782 3.56H52.527V4.505L51.132 4.565C51.422 4.985 51.567 5.47 51.567 6.02C51.567 6.51 51.447 6.955 51.207 7.355C50.977 7.755 50.642 8.075 50.202 8.315C49.772 8.545 49.242 8.66 48.612 8.66ZM48.612 7.625C49.142 7.625 49.562 7.49 49.872 7.22C50.192 6.94 50.352 6.54 50.352 6.02C50.352 5.51 50.192 5.12 49.872 4.85C49.562 4.57 49.142 4.43 48.612 4.43C48.072 4.43 47.642 4.57 47.322 4.85C47.012 5.12 46.857 5.51 46.857 6.02C46.857 6.54 47.012 6.94 47.322 7.22C47.642 7.49 48.072 7.625 48.612 7.625ZM46.422 11.96C46.422 12.46 46.632 12.83 47.052 13.07C47.472 13.32 47.997 13.445 48.627 13.445C49.247 13.445 49.742 13.31 50.112 13.04C50.492 12.77 50.682 12.41 50.682 11.96C50.682 11.64 50.552 11.36 50.292 11.12C50.032 10.89 49.552 10.755 48.852 10.715C48.302 10.675 47.827 10.625 47.427 10.565C47.017 10.785 46.747 11.02 46.617 11.27C46.487 11.53 46.422 11.76 46.422 11.96ZM53.7438 11V0.2H55.0038V4.835C55.2538 4.375 55.6088 4.02 56.0688 3.77C56.5288 3.51 57.0288 3.38 57.5688 3.38C58.4288 3.38 59.1188 3.65 59.6388 4.19C60.1588 4.72 60.4188 5.54 60.4188 6.65V11H59.1738V6.785C59.1738 5.235 58.5488 4.46 57.2988 4.46C56.6488 4.46 56.1038 4.695 55.6638 5.165C55.2238 5.625 55.0038 6.285 55.0038 7.145V11H53.7438ZM65.0632 11C64.3832 11 63.8482 10.835 63.4582 10.505C63.0682 10.175 62.8732 9.58 62.8732 8.72V4.625H61.5832V3.56H62.8732L63.0382 1.775H64.1332V3.56H66.3232V4.625H64.1332V8.72C64.1332 9.19 64.2282 9.51 64.4182 9.68C64.6082 9.84 64.9432 9.92 65.4232 9.92H66.2032V11H65.0632ZM76.4047 11.06C75.3747 11.06 74.4697 10.835 73.6897 10.385C72.9097 9.925 72.2997 9.295 71.8597 8.495C71.4297 7.695 71.2147 6.78 71.2147 5.75C71.2147 4.71 71.4297 3.79 71.8597 2.99C72.2997 2.19 72.9097 1.565 73.6897 1.115C74.4697 0.664999 75.3747 0.439999 76.4047 0.439999C77.4347 0.439999 78.3397 0.664999 79.1197 1.115C79.8997 1.565 80.5047 2.19 80.9347 2.99C81.3747 3.79 81.5947 4.71 81.5947 5.75C81.5947 6.78 81.3747 7.695 80.9347 8.495C80.5047 9.295 79.8997 9.925 79.1197 10.385C78.3397 10.835 77.4347 11.06 76.4047 11.06ZM76.4047 10.505C77.3447 10.505 78.1597 10.305 78.8497 9.905C79.5397 9.505 80.0697 8.945 80.4397 8.225C80.8197 7.505 81.0097 6.68 81.0097 5.75C81.0097 4.8 80.8197 3.97 80.4397 3.26C80.0697 2.54 79.5397 1.98 78.8497 1.58C78.1597 1.18 77.3447 0.979999 76.4047 0.979999C75.4647 0.979999 74.6497 1.18 73.9597 1.58C73.2697 1.98 72.7347 2.54 72.3547 3.26C71.9847 3.97 71.7997 4.8 71.7997 5.75C71.7997 6.68 71.9847 7.505 72.3547 8.225C72.7347 8.945 73.2697 9.505 73.9597 9.905C74.6497 10.305 75.4647 10.505 76.4047 10.505ZM76.4047 9.215C75.8047 9.215 75.2597 9.08 74.7697 8.81C74.2797 8.54 73.8847 8.145 73.5847 7.625C73.2947 7.095 73.1497 6.465 73.1497 5.735C73.1497 5.005 73.2947 4.38 73.5847 3.86C73.8847 3.34 74.2797 2.945 74.7697 2.675C75.2597 2.395 75.8047 2.255 76.4047 2.255C77.1447 2.255 77.7947 2.455 78.3547 2.855C78.9147 3.245 79.2897 3.81 79.4797 4.55H78.3247C78.1847 4.1 77.9397 3.76 77.5897 3.53C77.2397 3.29 76.8397 3.17 76.3897 3.17C75.8097 3.17 75.3097 3.385 74.8897 3.815C74.4697 4.245 74.2597 4.89 74.2597 5.75C74.2597 6.6 74.4697 7.24 74.8897 7.67C75.3097 8.1 75.8097 8.315 76.3897 8.315C77.3697 8.315 78.0147 7.86 78.3247 6.95H79.4797C79.2897 7.65 78.9147 8.205 78.3547 8.615C77.7947 9.015 77.1447 9.215 76.4047 9.215ZM86.8645 11V10.115C87.5745 9.555 88.2445 8.99 88.8745 8.42C89.5145 7.84 90.0795 7.27 90.5695 6.71C91.0695 6.15 91.4595 5.6 91.7395 5.06C92.0295 4.52 92.1745 4 92.1745 3.5C92.1745 3.13 92.1095 2.785 91.9795 2.465C91.8595 2.145 91.6595 1.89 91.3795 1.7C91.0995 1.5 90.7195 1.4 90.2395 1.4C89.7795 1.4 89.3945 1.505 89.0845 1.715C88.7745 1.915 88.5395 2.185 88.3795 2.525C88.2295 2.865 88.1545 3.23 88.1545 3.62H86.9395C86.9395 2.93 87.0845 2.34 87.3745 1.85C87.6645 1.35 88.0595 0.969999 88.5595 0.709999C89.0595 0.45 89.6245 0.32 90.2545 0.32C91.1845 0.32 91.9445 0.585 92.5345 1.115C93.1345 1.635 93.4345 2.415 93.4345 3.455C93.4345 4.075 93.2795 4.69 92.9695 5.3C92.6595 5.9 92.2645 6.485 91.7845 7.055C91.3045 7.615 90.7895 8.14 90.2395 8.63C89.6995 9.12 89.1945 9.56 88.7245 9.95H93.7945V11H86.8645ZM99.3574 11.18C98.4274 11.18 97.6224 10.955 96.9424 10.505C96.2724 10.045 95.7574 9.41 95.3974 8.6C95.0374 7.78 94.8574 6.83 94.8574 5.75C94.8574 4.67 95.0374 3.725 95.3974 2.915C95.7574 2.095 96.2724 1.46 96.9424 1.01C97.6224 0.55 98.4274 0.32 99.3574 0.32C100.287 0.32 101.087 0.55 101.757 1.01C102.427 1.46 102.942 2.095 103.302 2.915C103.662 3.725 103.842 4.67 103.842 5.75C103.842 6.83 103.662 7.78 103.302 8.6C102.942 9.41 102.427 10.045 101.757 10.505C101.087 10.955 100.287 11.18 99.3574 11.18ZM99.3574 10.07C99.9674 10.07 100.512 9.9 100.992 9.56C101.482 9.21 101.862 8.715 102.132 8.075C102.412 7.425 102.552 6.65 102.552 5.75C102.552 4.85 102.412 4.08 102.132 3.44C101.862 2.8 101.482 2.31 100.992 1.97C100.512 1.62 99.9674 1.445 99.3574 1.445C98.7374 1.445 98.1874 1.62 97.7074 1.97C97.2274 2.31 96.8474 2.8 96.5674 3.44C96.2874 4.08 96.1474 4.85 96.1474 5.75C96.1474 6.65 96.2874 7.425 96.5674 8.075C96.8474 8.715 97.2274 9.21 97.7074 9.56C98.1874 9.9 98.7374 10.07 99.3574 10.07ZM105.147 11V10.115C105.857 9.555 106.527 8.99 107.157 8.42C107.797 7.84 108.362 7.27 108.852 6.71C109.352 6.15 109.742 5.6 110.022 5.06C110.312 4.52 110.457 4 110.457 3.5C110.457 3.13 110.392 2.785 110.262 2.465C110.142 2.145 109.942 1.89 109.662 1.7C109.382 1.5 109.002 1.4 108.522 1.4C108.062 1.4 107.677 1.505 107.367 1.715C107.057 1.915 106.822 2.185 106.662 2.525C106.512 2.865 106.437 3.23 106.437 3.62H105.222C105.222 2.93 105.367 2.34 105.657 1.85C105.947 1.35 106.342 0.969999 106.842 0.709999C107.342 0.45 107.907 0.32 108.537 0.32C109.467 0.32 110.227 0.585 110.817 1.115C111.417 1.635 111.717 2.415 111.717 3.455C111.717 4.075 111.562 4.69 111.252 5.3C110.942 5.9 110.547 6.485 110.067 7.055C109.587 7.615 109.072 8.14 108.522 8.63C107.982 9.12 107.477 9.56 107.007 9.95H112.077V11H105.147ZM114.726 11V1.91L113.031 2.285V1.415L115.146 0.499999H116.001V11H114.726Z" fill="#1E2833" style="fill:#1E2833;fill:color(display-p3 0.1181 0.1582 0.1983);fill-opacity:1;"/>
</svg>
